<svg xmlns="http://www.w3.org/2000/svg" width="56" height="56" viewBox="0 0 56 56" fill="none">
  <path d="M34.72 33.9453C35.0537 34.111 35.4107 34.1903 35.7607 34.1903C36.617 34.1903 37.4407 33.719 37.849 32.9023C38.4253 31.7497 37.9587 30.3473 36.806 29.771L30.3333 26.5347V16.3333C30.3333 15.0453 29.288 14 28 14C26.712 14 25.6667 15.0453 25.6667 16.3333V27.9767C25.6667 28.8587 26.166 29.6683 26.957 30.0627L34.72 33.9453Z" fill="var(--foreground-color, #2B2B2B)"/>
  <path fill-rule="evenodd" clip-rule="evenodd" d="M4.65527 28.0023C4.65527 15.1223 15.0853 4.66895 27.9653 4.66895C40.8686 4.66895 51.3219 15.1223 51.3219 28.0023C51.3219 40.8823 40.8686 51.3356 27.9653 51.3356C15.0853 51.3356 4.65527 40.8823 4.65527 28.0023ZM9.32194 28.0023C9.32194 38.3156 17.6753 46.6689 27.9886 46.6689C38.3019 46.6689 46.6553 38.3156 46.6553 28.0023C46.6553 17.6889 38.3019 9.33561 27.9886 9.33561C17.6753 9.33561 9.32194 17.6889 9.32194 28.0023Z" fill="var(--foreground-color, #2B2B2B)"/>
</svg>