<svg width="40" height="40" viewBox="0 0 40 40" fill="none" xmlns="http://www.w3.org/2000/svg">
<circle cx="20" cy="20" r="20" fill="var(--background-color)"/>
<path d="M26.2997 13.71C25.9097 13.32 25.2797 13.32 24.8897 13.71L19.9997 18.59L15.1097 13.7C14.7197 13.31 14.0897 13.31 13.6997 13.7C13.3097 14.09 13.3097 14.72 13.6997 15.11L18.5897 20L13.6997 24.89C13.3097 25.28 13.3097 25.91 13.6997 26.3C14.0897 26.69 14.7197 26.69 15.1097 26.3L19.9997 21.41L24.8897 26.3C25.2797 26.69 25.9097 26.69 26.2997 26.3C26.6897 25.91 26.6897 25.28 26.2997 24.89L21.4097 20L26.2997 15.11C26.6797 14.73 26.6797 14.09 26.2997 13.71Z" fill="var(--foreground-color)"/>
</svg>
