<svg width="48" height="48" viewBox="0 0 48 48" fill="none" xmlns="http://www.w3.org/2000/svg">
<path d="M23.9998 3.99999C12.9998 3.99999 3.99976 13 3.99976 24C3.99976 35 12.9998 44 23.9998 44C34.9998 44 43.9998 35 43.9998 24C43.9998 13 34.9998 3.99999 23.9998 3.99999Z" fill="var(--background-color)" fill-opacity="0.7"/>
<path d="M31.4 22.6L20.4 16.2C19.4 15.6 18 16.4 18 17.6V30.2C18 31.4 19.4 32.2 20.4 31.6L31.4 25.2C32.4 24.8 32.4 23.2 31.4 22.6Z" fill="var(--foreground-color)"/>
<path d="M4.1001 24.0002C4.1001 13.0563 13.0562 4.10017 24.0001 4.10017C34.944 4.10017 43.9001 13.0563 43.9001 24.0002C43.9001 34.944 34.944 43.9002 24.0001 43.9002C13.0562 43.9002 4.1001 34.944 4.1001 24.0002Z" stroke="var(--background-color)" fill-opacity="0.7"/>
</svg>
