<svg width="28" height="28" viewBox="0 0 28 28" fill="none" xmlns="http://www.w3.org/2000/svg">
<path d="M12.0668 3.5C9.87467 3.5 7.6825 4.3365 6.0095 6.0095C2.6635 9.3555 2.6635 14.7793 6.0095 18.1253C7.6825 19.7983 9.87467 20.6348 12.0668 20.6348C13.8915 20.6348 15.7115 20.0468 17.2375 18.8883L22.5097 24.1605C22.7372 24.388 23.0358 24.5023 23.3345 24.5023C23.6332 24.5023 23.9318 24.388 24.1593 24.1605L24.1605 24.1593C24.6155 23.7043 24.6155 22.9658 24.1605 22.5108L18.8883 17.2387C21.4398 13.881 21.1913 9.0755 18.1265 6.01067C16.4523 4.3365 14.259 3.5 12.0668 3.5ZM12.0668 18.3003C10.402 18.3003 8.83633 17.6517 7.65917 16.4745C5.229 14.0443 5.229 10.0893 7.65917 7.65917C8.83633 6.482 10.402 5.83333 12.0668 5.83333C13.7317 5.83333 15.2973 6.482 16.4745 7.65917C18.9047 10.0893 18.9047 14.0443 16.4745 16.4745C15.2973 17.6517 13.7317 18.3003 12.0668 18.3003Z" fill="var(--foreground-color)"/>
</svg>
