<svg viewBox="0 0 56 56" fill="#808080" xmlns="http://www.w3.org/2000/svg"><g clip-path="url(#clip0_1186_12009)"><path d="M40.6862 44.6873C42.6918 42.1139 43.7066 38.9123 43.5375 35.6744C43.5375 35.6744 43.5375 35.6744 43.5375 35.6623C43.5375 35.6623 43.5375 35.6623 43.5375 35.6502L42.5951 22.904C42.5951 22.904 42.5951 22.904 42.5951 22.8919C42.5951 22.8919 42.5951 22.8919 42.5951 22.8798C42.4985 21.9012 42.0394 20.9951 41.3145 20.3427C40.5775 19.6903 39.6351 19.3278 38.6444 19.3399C37.8108 19.3399 37.0375 19.6299 36.4093 20.089C35.8173 19.3641 34.9716 18.8445 33.9688 18.6754C32.9298 18.4942 31.8666 18.7358 30.9967 19.3641C30.7671 19.062 30.5013 18.7962 30.1872 18.5546C29.0515 17.7209 27.5655 17.5397 26.2848 18.0834V10.0974C26.2848 8.72006 25.5478 7.42732 24.3517 6.73866C23.1556 6.05 21.6696 6.05 20.4735 6.73866C19.2774 7.42732 18.5404 8.70798 18.5404 10.0853L18.4921 25.4412C18.0088 25.3808 17.5135 25.3445 17.006 25.3566C17.006 25.3566 17.006 25.3566 16.994 25.3566C15.7133 25.3687 14.4689 25.9728 13.5748 26.9997C12.7049 28.0025 12.3063 29.3194 12.4875 30.6121C12.862 33.403 13.7561 36.0731 15.1334 38.5257C16.5107 40.9783 18.3109 43.1046 20.4977 44.8565C20.6668 45.0136 20.7755 45.2552 20.7755 45.4968V48.626C20.7755 49.3026 21.3192 49.8462 21.9958 49.8462C22.6724 49.8462 23.216 49.3026 23.216 48.626V45.4968C23.216 44.5665 22.8294 43.6846 22.1649 43.0684C22.1529 43.0684 22.1408 43.0442 22.1287 43.0322C22.1287 43.0322 22.1166 43.0201 22.1045 43.008C22.1045 43.008 22.0924 42.9959 22.0804 42.9838C18.1417 39.8426 15.6046 35.324 14.928 30.2859C14.8434 29.6819 15.0367 29.0778 15.4475 28.5945C15.8824 28.0871 16.4624 27.7971 17.0423 27.7971C17.5376 27.7971 18.0209 27.8333 18.5042 27.9058V29.6094C18.4558 29.7785 18.3834 29.8027 18.3471 29.8268C17.7309 30.1047 17.4531 30.8296 17.7309 31.4458C17.9363 31.9049 18.3834 32.1707 18.8425 32.1707C19.0116 32.1707 19.1808 32.1344 19.3378 32.062C20.0506 31.7357 20.5822 31.1317 20.8359 30.3463C20.9084 30.1047 20.9447 29.8631 20.9447 29.6214L21.0051 10.0853C21.0051 9.57787 21.283 9.0946 21.7179 8.84088C22.1649 8.58717 22.7086 8.58717 23.1436 8.84088C23.5906 9.0946 23.8564 9.56578 23.8564 10.0853V21.5629C23.8564 21.5629 23.8564 21.575 23.8564 21.5871C23.8564 21.6113 23.8564 21.6354 23.8564 21.6596C23.8564 21.6838 23.8564 21.6958 23.8564 21.72C23.8564 21.7442 23.8564 21.7683 23.8564 21.7804C23.8564 21.8046 23.8564 21.8167 23.8564 21.8408C23.8564 21.865 23.8564 21.8771 23.8685 21.9012C23.8685 21.9254 23.8685 21.9375 23.8805 21.9616C23.8805 21.9858 23.8926 21.9979 23.9047 22.022C23.9047 22.0462 23.9168 22.0583 23.9289 22.0824C23.9289 22.0945 23.941 22.1187 23.953 22.1308C23.953 22.1549 23.9772 22.167 23.9772 22.1912C23.9772 22.2033 24.0014 22.2274 24.0014 22.2395C24.0014 22.2516 24.0255 22.2758 24.0376 22.2878C24.0376 22.2999 24.0618 22.3241 24.0738 22.3362C24.0859 22.3482 24.098 22.3724 24.1101 22.3845C24.1222 22.3966 24.1343 22.4087 24.1463 22.4328C24.1584 22.4449 24.1705 22.457 24.1826 22.4691C24.1947 22.4811 24.2067 22.4932 24.2309 22.5053C24.243 22.5174 24.2551 22.5295 24.2792 22.5416C24.2913 22.5536 24.3155 22.5657 24.3276 22.5778C24.3396 22.5778 24.3638 22.602 24.3759 22.614C24.388 22.614 24.4121 22.6382 24.4242 22.6503C24.4363 22.6503 24.4605 22.6744 24.4725 22.6744C24.4846 22.6744 24.5088 22.6865 24.533 22.6986C24.545 22.6986 24.5692 22.7107 24.5813 22.7228C24.5934 22.7228 24.6175 22.7349 24.6417 22.7469C24.6659 22.7469 24.6779 22.759 24.7021 22.7711C24.7142 22.7711 24.7383 22.7711 24.7625 22.7832C24.7867 22.7832 24.8108 22.7832 24.8229 22.7953C24.8471 22.7953 24.8592 22.7953 24.8833 22.7953C24.9075 22.7953 24.9317 22.7953 24.9437 22.7953C24.9437 22.7953 24.9558 22.7953 24.9679 22.7953C24.98 22.7953 24.9921 22.7953 25.0041 22.7953C25.0162 22.7953 25.0283 22.7953 25.0404 22.7953C25.0404 22.7953 25.0525 22.7953 25.0646 22.7953C25.0887 22.7953 25.1129 22.7953 25.125 22.7953C25.1491 22.7953 25.1612 22.7953 25.1854 22.7953C25.2095 22.7953 25.2216 22.7953 25.2458 22.7953C25.2699 22.7953 25.282 22.7953 25.3062 22.7953C25.3303 22.7953 25.3424 22.7953 25.3666 22.7832C25.3908 22.7832 25.4028 22.7832 25.427 22.7711C25.4391 22.7711 25.4632 22.759 25.4753 22.7469C25.4995 22.7469 25.5116 22.7349 25.5357 22.7228C25.5478 22.7228 25.572 22.7107 25.5841 22.6986C25.6082 22.6986 25.6203 22.6745 25.6445 22.6624C25.6566 22.6624 25.6686 22.6503 25.6928 22.6382C25.717 22.6382 25.729 22.614 25.7532 22.602C25.7653 22.602 25.7774 22.5778 25.7895 22.5657C25.8015 22.5536 25.8257 22.5416 25.8378 22.5295C25.8499 22.5295 25.8619 22.5053 25.874 22.4932C25.8861 22.4811 25.9103 22.4691 25.9224 22.4449C25.9344 22.4328 25.9465 22.4207 25.9586 22.4087C25.9707 22.3966 25.9828 22.3845 25.9948 22.3603C26.0069 22.3482 26.019 22.3241 26.0311 22.312C26.0311 22.2999 26.0553 22.2758 26.0673 22.2637C26.0673 22.2516 26.0915 22.2274 26.1036 22.2153C26.1036 22.2033 26.1277 22.1791 26.1277 22.167C26.1277 22.1549 26.1398 22.1308 26.1519 22.1187C26.1519 22.0945 26.164 22.0824 26.1761 22.0583C26.1761 22.0462 26.1882 22.022 26.2002 22.01C26.2002 21.9858 26.2123 21.9737 26.2244 21.9495C26.2244 21.9375 26.2244 21.9133 26.2365 21.8891C26.2365 21.865 26.2365 21.8408 26.2486 21.8287C26.2486 21.8046 26.2486 21.7925 26.2486 21.7683C26.2486 21.7442 26.2486 21.72 26.2486 21.7079C26.2486 21.7079 26.2486 21.6958 26.2486 21.6838C26.2848 21.1159 26.6231 20.6206 27.1426 20.3789C27.65 20.1373 28.2541 20.1977 28.7132 20.536C29.1723 20.8743 29.4019 21.43 29.3173 21.9858C29.3173 21.9858 29.3173 21.9979 29.3173 22.01C29.3173 22.0341 29.3173 22.0583 29.3173 22.0704C29.3173 22.0945 29.3173 22.1066 29.3173 22.1308C29.3173 22.1549 29.3173 22.1791 29.3173 22.1912C29.3173 22.2153 29.3173 22.2274 29.3173 22.2516C29.3173 22.2758 29.3173 22.2878 29.3173 22.312C29.3173 22.3362 29.3173 22.3482 29.3173 22.3724C29.3173 22.3966 29.3173 22.4087 29.3294 22.4328C29.3294 22.457 29.3294 22.4691 29.3415 22.4932C29.3415 22.5174 29.3415 22.5295 29.3536 22.5416C29.3536 22.5657 29.3656 22.5778 29.3777 22.602C29.3777 22.614 29.3898 22.6382 29.4019 22.6503C29.4019 22.6745 29.414 22.6865 29.4261 22.7107C29.4261 22.7228 29.4381 22.7469 29.4502 22.759C29.4502 22.7711 29.4744 22.7953 29.4865 22.8074C29.4865 22.8194 29.5106 22.8436 29.5227 22.8557C29.5227 22.8678 29.5469 22.8919 29.5589 22.904C29.571 22.9161 29.5831 22.9403 29.5952 22.9523C29.6073 22.9644 29.6194 22.9765 29.6314 22.9886C29.6435 23.0007 29.6556 23.0127 29.6798 23.0369C29.6918 23.049 29.7039 23.0611 29.716 23.0731C29.7281 23.0852 29.7523 23.0973 29.7643 23.1094C29.7764 23.1094 29.7885 23.1336 29.8127 23.1456C29.8247 23.1456 29.8489 23.1698 29.861 23.1819C29.8731 23.1819 29.8972 23.206 29.9093 23.2181C29.9214 23.2181 29.9456 23.2423 29.9576 23.2423C29.9818 23.2423 29.9939 23.2665 30.0181 23.2665C30.0301 23.2665 30.0543 23.2785 30.0664 23.2906C30.0905 23.2906 30.1026 23.3027 30.1268 23.3148C30.1389 23.3148 30.163 23.3148 30.1751 23.3269C30.1993 23.3269 30.2234 23.3269 30.2355 23.3389C30.2355 23.3389 30.2476 23.3389 30.2597 23.3389C30.2718 23.3389 30.2839 23.3389 30.2959 23.3389C30.308 23.3389 30.3201 23.3389 30.3322 23.3389H30.3563C30.3563 23.3389 30.3805 23.3389 30.3926 23.3389C30.4288 23.3389 30.453 23.3389 30.4892 23.3389C30.4892 23.3389 30.5134 23.3389 30.5255 23.3389C30.5617 23.3389 30.5859 23.3389 30.6221 23.3389C30.6342 23.3389 30.6463 23.3389 30.6705 23.3389C30.6946 23.3389 30.7188 23.3389 30.743 23.3389C30.755 23.3389 30.7792 23.3389 30.7913 23.3389C30.8154 23.3389 30.8396 23.3389 30.8517 23.3269C30.8638 23.3269 30.8759 23.3269 30.9 23.3148C30.9242 23.3148 30.9363 23.3027 30.9604 23.2906C30.9725 23.2906 30.9846 23.2785 31.0088 23.2665C31.0329 23.2665 31.045 23.2544 31.0692 23.2423C31.0812 23.2423 31.0933 23.2302 31.1175 23.2181C31.1417 23.2181 31.1537 23.194 31.1779 23.1819C31.19 23.1819 31.2021 23.1698 31.2141 23.1577C31.2262 23.1577 31.2504 23.1336 31.2625 23.1215C31.2746 23.1215 31.2866 23.0973 31.2987 23.0852C31.3108 23.0731 31.335 23.0611 31.347 23.049C31.3591 23.049 31.3712 23.0248 31.3833 23.0127C31.3954 23.0007 31.4075 22.9765 31.4316 22.9644C31.4316 22.9523 31.4558 22.9403 31.4679 22.9282C31.4799 22.9161 31.492 22.8919 31.5041 22.8678C31.5041 22.8678 31.5162 22.8436 31.5283 22.8315C31.5524 22.7953 31.5645 22.7711 31.5887 22.7349C31.6128 22.6986 31.6249 22.6624 31.637 22.6261V22.602C31.637 22.5778 31.6612 22.5536 31.6612 22.5174C31.6612 22.5053 31.6612 22.4932 31.6612 22.4811C31.6612 22.457 31.6733 22.4328 31.6853 22.4087C31.6853 22.4087 31.6853 22.4087 31.6853 22.3966C31.8666 21.5388 32.676 20.9468 33.4976 21.0917C34.3312 21.2367 34.887 21.9858 34.8145 22.8074C34.8145 22.8557 34.8145 22.9161 34.8024 22.9644C34.8024 22.9644 34.8024 22.9765 34.8024 22.9886C34.8024 23.0127 34.8024 23.0369 34.8024 23.049C34.8024 23.0731 34.8024 23.0852 34.8024 23.1094C34.8024 23.1336 34.8024 23.1577 34.8024 23.1698C34.8024 23.194 34.8024 23.206 34.8024 23.2302C34.8024 23.2544 34.8024 23.2665 34.8024 23.2906C34.8024 23.3148 34.8024 23.3269 34.8145 23.351C34.8145 23.3752 34.8145 23.3873 34.8266 23.4114C34.8266 23.4356 34.8266 23.4477 34.8507 23.4718C34.8507 23.4839 34.8628 23.5081 34.8749 23.5202C34.8749 23.5443 34.887 23.5564 34.8991 23.5806C34.8991 23.5927 34.9112 23.6168 34.9232 23.6289C34.9232 23.641 34.9474 23.6652 34.9474 23.6772C34.9474 23.6893 34.9716 23.7135 34.9836 23.7256C34.9836 23.7376 35.0078 23.7618 35.0199 23.7739C35.0199 23.786 35.0441 23.8101 35.0561 23.8222C35.0682 23.8343 35.0803 23.8464 35.0924 23.8705C35.1045 23.8826 35.1165 23.8947 35.1286 23.9189C35.1407 23.931 35.1528 23.943 35.1649 23.9551C35.1769 23.9672 35.2011 23.9793 35.2132 23.9914C35.2253 23.9914 35.2374 24.0155 35.2615 24.0276C35.2736 24.0397 35.2978 24.0518 35.3099 24.0639C35.3219 24.0639 35.3461 24.088 35.3582 24.1001C35.3703 24.1001 35.3944 24.1243 35.4065 24.1363C35.4186 24.1363 35.4427 24.1605 35.4548 24.1605C35.4669 24.1605 35.4911 24.1726 35.5032 24.1847C35.5273 24.1847 35.5394 24.1967 35.5636 24.2088C35.5756 24.2088 35.5998 24.2209 35.6119 24.233C35.6361 24.233 35.6481 24.2451 35.6723 24.2572C35.6965 24.2572 35.7085 24.2572 35.7327 24.2692C35.7569 24.2692 35.781 24.2692 35.7931 24.2813C35.7931 24.2813 35.8052 24.2813 35.8173 24.2813C35.8414 24.2813 35.8656 24.2813 35.8777 24.2813C35.9019 24.2813 35.9381 24.2813 35.9623 24.2813C35.9985 24.2813 36.0348 24.2813 36.0831 24.2813H36.1072C36.1314 24.2813 36.1677 24.2813 36.1918 24.2813C36.2039 24.2813 36.216 24.2813 36.2401 24.2813C36.2643 24.2813 36.2885 24.2813 36.3006 24.2692C36.3126 24.2692 36.3368 24.2692 36.3489 24.2572C36.373 24.2572 36.3851 24.2451 36.4093 24.233C36.4214 24.233 36.4455 24.2209 36.4576 24.2088C36.4697 24.2088 36.4939 24.1967 36.5059 24.1847C36.518 24.1847 36.5422 24.1726 36.5543 24.1605C36.5663 24.1605 36.5905 24.1363 36.6026 24.1363C36.6147 24.1363 36.6268 24.1122 36.6388 24.1122C36.6509 24.1122 36.6751 24.088 36.6872 24.0759C36.6992 24.0759 36.7113 24.0518 36.7234 24.0397C36.7355 24.0276 36.7597 24.0155 36.7717 24.0034C36.7717 24.0034 36.7959 23.9793 36.808 23.9672C36.8201 23.9551 36.8321 23.943 36.8563 23.9189C36.8563 23.9189 36.8805 23.8947 36.8926 23.8826C36.9046 23.8705 36.9167 23.8464 36.9288 23.8343C36.9288 23.8222 36.953 23.8101 36.953 23.7981C36.965 23.786 36.9771 23.7618 36.9892 23.7497C36.9892 23.7376 37.0013 23.7256 37.0134 23.7135C37.0134 23.7014 37.0375 23.6772 37.0375 23.6652C37.0375 23.6531 37.0496 23.6289 37.0617 23.6168C37.0617 23.6047 37.0738 23.5806 37.0859 23.5685C37.0859 23.5564 37.0979 23.5323 37.11 23.5202C37.11 23.5081 37.11 23.4839 37.1221 23.4718C37.1221 23.4477 37.1221 23.4356 37.1342 23.4114C37.1342 23.3873 37.1342 23.3752 37.1463 23.351C37.1463 23.3269 37.1463 23.3148 37.1463 23.2906C37.1463 23.2906 37.1463 23.2785 37.1463 23.2665C37.1463 23.194 37.1583 23.1336 37.1704 23.0611C37.2792 22.3362 37.8228 21.8408 38.5478 21.8408C39.321 21.8408 39.9613 22.4087 40.0459 23.1819L40.9883 35.8919C41.1212 38.5257 40.2996 41.1353 38.6806 43.2255C38.1128 43.8295 37.7383 44.6028 37.6295 45.4243C37.6295 45.4243 37.6295 45.4243 37.6295 45.4364C37.6295 45.4606 37.6295 45.4727 37.6295 45.4968C37.6295 45.521 37.6295 45.5451 37.6295 45.5572C37.6295 45.5572 37.6295 45.5572 37.6295 45.5693V48.6864C37.6295 49.363 38.1732 49.9066 38.8498 49.9066C39.5264 49.9066 40.07 49.363 40.07 48.6864V45.666C40.1184 45.3639 40.2634 45.086 40.4808 44.8686C40.4808 44.8686 40.4929 44.8565 40.505 44.8444C40.5292 44.8202 40.5533 44.7961 40.5775 44.7598L40.6862 44.6873Z" fill="var(--foreground-color)"></path></g><defs><clipPath id="clip0_1186_12009"><rect width="56" height="56" fill="white"></rect></clipPath></defs></svg>