<svg width="40" height="40" viewBox="0 0 40 40" fill="none" xmlns="http://www.w3.org/2000/svg">
<rect width="40" height="40" rx="20" fill="var(--background-color)"></rect>
<path fill-rule="evenodd" clip-rule="evenodd" d="M25.656 14.344C24.144 12.833 22.136 12 20 12C15.589 12 12 15.589 12 20C12 21.403 12.369 22.788 13.065 24.007L13.473 24.72L13.262 25.514L12.787 27.301L14.768 26.842L15.506 26.671L16.172 27.031C17.343 27.665 18.664 28 19.99 28C24.411 28 28 24.411 28 20C28 17.865 27.167 15.856 25.656 14.344ZM10 20C10 14.48 14.49 10 20 10C22.67 10 25.18 11.039 27.07 12.929C28.96 14.819 30 17.329 30 19.999C30 25.519 25.51 29.999 20 29.999H19.989C18.319 29.999 16.679 29.579 15.219 28.789L11.619 29.624C10.885 29.794 10.233 29.122 10.427 28.393L11.33 25C10.46 23.48 10 21.76 10 20ZM23.152 24.689C23.624 24.62 24.609 24.088 24.816 23.517C25.022 22.946 25.022 22.454 24.965 22.345C24.9021 22.2547 24.7652 22.1894 24.5551 22.0891C24.5347 22.0794 24.5137 22.0694 24.492 22.059C24.246 21.931 23.034 21.34 22.808 21.261C22.582 21.172 22.415 21.133 22.257 21.379C22.1221 21.5777 21.7877 21.9759 21.5913 22.2098C21.5445 22.2655 21.5056 22.3119 21.479 22.344C21.331 22.511 21.193 22.531 20.947 22.403C20.91 22.3852 20.8604 22.3643 20.7997 22.3387C20.4577 22.1944 19.763 21.9014 18.968 21.182C18.229 20.532 17.737 19.724 17.599 19.478C17.4638 19.2532 17.5674 19.1353 17.6763 19.0113C17.6865 18.9996 17.6969 18.9879 17.707 18.976C17.973 18.651 18.239 18.306 18.318 18.139C18.397 17.972 18.357 17.834 18.298 17.706C18.2624 17.6348 18.069 17.1649 17.8758 16.6954C17.7489 16.3871 17.6221 16.079 17.54 15.884C17.3627 15.4478 17.1763 15.4547 17.0328 15.4599C17.0177 15.4605 17.0031 15.461 16.989 15.461C16.841 15.451 16.674 15.451 16.516 15.451H16.516C16.348 15.451 16.082 15.51 15.856 15.756C15.8435 15.7696 15.8297 15.7843 15.8148 15.8001C15.5613 16.0703 14.999 16.6694 14.999 17.804C14.999 19.016 15.875 20.188 16.003 20.355C16.008 20.3621 16.0157 20.3734 16.026 20.3885C16.2593 20.7305 17.8407 23.049 20.208 24.068C20.7463 24.3052 21.1824 24.4496 21.5259 24.5634C21.5532 24.5725 21.5799 24.5813 21.606 24.59C22.197 24.778 22.729 24.748 23.152 24.689Z" fill="var(--foreground-color)"/>
</svg>
